<svg width="41" height="46" viewBox="0 0 41 46" fill="none" xmlns="http://www.w3.org/2000/svg">
<path d="M26.3145 39.1836L23.1953 39.8659L23.7922 41.0056C24.1084 41.6091 24.4786 42.1831 24.8982 42.7201L26.7044 45.032L30.6033 43.5699C28.1665 42.7901 26.9968 40.2558 26.3145 39.1836Z" fill="white"/>
<path d="M32.0686 35.4766L29.0469 35.9639L29.0767 36.0745C29.5064 37.6709 30.2811 39.1537 31.3461 40.4183L32.8483 42.2022L36.3574 39.473C33.9206 38.6932 32.361 35.9639 32.0686 35.4766Z" fill="white"/>
<mask id="mask0_4758_6685" style="mask-type:alpha" maskUnits="userSpaceOnUse" x="0" y="0" width="41" height="41">
<path d="M20.0795 40.1591C31.1692 40.1591 40.1591 31.1692 40.1591 20.0795C40.1591 8.98992 31.1692 0 20.0795 0C8.98992 0 0 8.98992 0 20.0795C0 31.1692 8.98992 40.1591 20.0795 40.1591Z" fill="white"/>
</mask>
<g mask="url(#mask0_4758_6685)">
<path fill-rule="evenodd" clip-rule="evenodd" d="M20.8447 -9.166C13.631 -9.166 7.78321 -3.31819 7.78321 3.89544C7.78321 11.1091 13.631 16.9569 20.8447 16.9569C28.0583 16.9569 33.9061 11.1091 33.9061 3.89544C33.9061 -3.31819 28.0583 -9.166 20.8447 -9.166ZM4.66406 3.89544C4.66406 -5.04085 11.9084 -12.2852 20.8447 -12.2852C29.781 -12.2852 37.0253 -5.04085 37.0253 3.89544C37.0253 12.8317 29.781 20.076 20.8447 20.076C11.9084 20.076 4.66406 12.8317 4.66406 3.89544Z" fill="white"/>
<path fill-rule="evenodd" clip-rule="evenodd" d="M20.8496 -2.34178C17.4043 -2.34178 14.6113 0.4512 14.6113 3.89652C14.6113 7.34184 17.4043 10.1348 20.8496 10.1348C24.295 10.1348 27.088 7.34184 27.088 3.89652C27.088 0.4512 24.295 -2.34178 20.8496 -2.34178ZM11.4922 3.89652C11.4922 -1.27146 15.6817 -5.46094 20.8496 -5.46094C26.0176 -5.46094 30.2071 -1.27146 30.2071 3.89652C30.2071 9.0645 26.0176 13.254 20.8496 13.254C15.6817 13.254 11.4922 9.0645 11.4922 3.89652Z" fill="white"/>
<path fill-rule="evenodd" clip-rule="evenodd" d="M38.0009 20.2715C30.7873 20.2715 24.9395 26.1193 24.9395 33.3329C24.9395 40.5466 30.7873 46.3944 38.0009 46.3944C45.2146 46.3944 51.0624 40.5466 51.0624 33.3329C51.0624 26.1193 45.2146 20.2715 38.0009 20.2715ZM21.8203 33.3329C21.8203 24.3966 29.0646 17.1523 38.0009 17.1523C46.9372 17.1523 54.1815 24.3966 54.1815 33.3329C54.1815 42.2692 46.9372 49.5135 38.0009 49.5135C29.0646 49.5135 21.8203 42.2692 21.8203 33.3329Z" fill="white"/>
<path fill-rule="evenodd" clip-rule="evenodd" d="M38.0059 27.0957C34.5606 27.0957 31.7676 29.8887 31.7676 33.334C31.7676 36.7793 34.5606 39.5723 38.0059 39.5723C41.4512 39.5723 44.2442 36.7793 44.2442 33.334C44.2442 29.8887 41.4512 27.0957 38.0059 27.0957ZM28.6484 33.334C28.6484 28.166 32.8379 23.9766 38.0059 23.9766C43.1739 23.9766 47.3634 28.166 47.3634 33.334C47.3634 38.502 43.1739 42.6915 38.0059 42.6915C32.8379 42.6915 28.6484 38.502 28.6484 33.334Z" fill="white"/>
<path fill-rule="evenodd" clip-rule="evenodd" d="M3.89154 20.2715C-3.3221 20.2715 -9.16991 26.1193 -9.16991 33.3329C-9.16991 40.5466 -3.3221 46.3944 3.89154 46.3944C11.1052 46.3944 16.953 40.5466 16.953 33.3329C16.953 26.1193 11.1052 20.2715 3.89154 20.2715ZM-12.2891 33.3329C-12.2891 24.3966 -5.04476 17.1523 3.89154 17.1523C12.8278 17.1523 20.0721 24.3966 20.0721 33.3329C20.0721 42.2692 12.8278 49.5135 3.89154 49.5135C-5.04476 49.5135 -12.2891 42.2692 -12.2891 33.3329Z" fill="white"/>
<path fill-rule="evenodd" clip-rule="evenodd" d="M3.89652 27.0957C0.4512 27.0957 -2.34178 29.8887 -2.34178 33.334C-2.34178 36.7793 0.4512 39.5723 3.89652 39.5723C7.34184 39.5723 10.1348 36.7793 10.1348 33.334C10.1348 29.8887 7.34184 27.0957 3.89652 27.0957ZM-5.46094 33.334C-5.46094 28.166 -1.27146 23.9766 3.89652 23.9766C9.0645 23.9766 13.254 28.166 13.254 33.334C13.254 38.502 9.0645 42.6915 3.89652 42.6915C-1.27146 42.6915 -5.46094 38.502 -5.46094 33.334Z" fill="white"/>
</g>
</svg>
